<?xml version="1.0" encoding="utf-8"?>
<!-- Generator: Adobe Illustrator 27.2.0, SVG Export Plug-In . SVG Version: 6.00 Build 0)  -->
<svg version="1.1" id="Layer_1" xmlns="http://www.w3.org/2000/svg" xmlns:xlink="http://www.w3.org/1999/xlink" x="0px" y="0px"
	 viewBox="0 0 1000 1000" style="enable-background:new 0 0 1000 1000;" xml:space="preserve">
<style type="text/css">
	.st0{fill:#158285;}
	.st1{fill:#EC9B3F;}
</style>
<g id="AR-Qiwa-logo-beta-color">
	<g id="Qiwa-Logo-10032019-01" transform="translate(214.000000, 0.000000)">
		<g id="Layer_3_copy">
			<path id="Path" class="st0" d="M448.4,295.7v31.9h33.6c9.5-0.4,14.9-6.4,14.9-16.7v-31.8h-33.6
				C453.8,279.5,448.4,285.6,448.4,295.7"/>
			<path id="Path_00000075880261333264691590000002643690089197817224_" class="st0" d="M388.8,295.7v31.9h33.6
				c9.5-0.4,14.9-6.4,14.9-16.7v-31.8h-33.6C394.3,279.5,388.8,285.6,388.8,295.7"/>
			<path id="Shape" class="st0" d="M109.6,336.9l-8.5-8.5c-0.4,0-0.8,0.1-1.1,0.1c-0.4,0-0.8,0-1.1,0c-3.9,0-7.3-0.6-10.3-1.9
				c-3-1.2-5.5-3-7.5-5.2c-2-2.2-3.5-4.9-4.6-8c-1-3.1-1.6-6.5-1.6-10.3c0-3.8,0.5-7.2,1.6-10.3c1-3.1,2.6-5.7,4.6-7.9
				c2-2.2,4.5-3.9,7.5-5.1c3-1.2,6.4-1.8,10.3-1.8c3.8,0,7.2,0.6,10.2,1.8s5.5,2.9,7.5,5.1c2,2.2,3.6,4.8,4.6,7.9
				c1,3.1,1.6,6.5,1.6,10.2c0,2.4-0.2,4.8-0.7,7c-0.4,2.2-1.2,4.3-2.1,6.3c-1,1.9-2.2,3.7-3.8,5.3c-1.6,1.6-3.4,3-5.7,4.2l11,10.9
				L109.6,336.9L109.6,336.9z M98.8,285.9c-2.4,0-4.5,0.5-6.3,1.5c-1.7,1-3.2,2.4-4.3,4c-1.1,1.7-1.9,3.5-2.4,5.6s-0.7,4.2-0.7,6.4
				c0,2.2,0.3,4.3,0.8,6.4c0.5,2.1,1.3,4,2.4,5.6c1.1,1.6,2.5,3,4.2,4c1.7,1,3.8,1.5,6.3,1.5c2.5,0,4.6-0.5,6.4-1.5
				c1.7-1,3.1-2.4,4.2-4s1.9-3.6,2.4-5.7s0.7-4.2,0.7-6.4s-0.3-4.3-0.7-6.4c-0.5-2.1-1.3-3.9-2.4-5.6c-1.1-1.6-2.5-3-4.2-4
				C103.4,286.4,101.3,285.9,98.8,285.9"/>
			<rect id="Rectangle" x="133.4" y="279" class="st0" width="9.8" height="48.7"/>
			<polygon id="Path_00000093894321956372078500000008562260785878773904_" class="st0" points="151.3,279 161.6,279 170.6,318 
				170.8,318 179.1,279 192.3,279 200.9,318 201,318 210.2,279 219.7,279 207,327.7 194.4,327.7 185.6,288.8 185.5,288.8 
				176.8,327.7 164.2,327.7 			"/>
			<path id="Shape_00000075879089249565568280000017393043587766430129_" class="st0" d="M240,279h11l19.1,48.7h-10.8l-4.2-11.2
				h-19.8l-4.3,11.2H221L240,279z M245.4,288.8h-0.1l-7,20.1h14.2L245.4,288.8z"/>
			<path id="Path_00000149353213418217243410000007089563250069309885_" class="st0" d="M340.2,589l0,18.3c0,0-0.7,18.9-3.9,26.9
				c-2.1,5.4-5.1,10.3-8.9,14.8c-10.3,12.3-25.5,19.4-41.4,19.4c-14,0-27.2-5.3-37.4-15c-1.1-1-2.1-1.8-3-2.5
				c-1.1-0.8-2.2-1.4-3.3-1.7c-2.1-0.7-3.6-0.5-4.5-0.2c-0.1,0.1-0.5,0.2-0.8,0.4c-1.5,0.9-3.1,2.2-4.6,3.3
				c-2.7,2.2-5.1,4.6-7.5,7.4c-3.4,4-6.5,8.4-9.2,13.1c-0.3,0.5-0.6,1-0.9,1.6c-2.3,7,1.3,13.4,3.7,16.7l0.6,0.9
				c0.5,0.7,3.1,3,4,3.8c0.5,0.4,0.9,0.8,1.1,1c32.8,27.4,77.9,20.2,95.8,15.7c2.8-0.6,5.5-1.4,8.1-2.3l0.7-0.2
				c2.2-0.8,4-1.5,5.6-2.3l0.9-0.3c0.2-0.1,0.7-0.3,1.4-0.8l0.4-0.2c15.8-7.8,27.7-18,37.3-32.1c9.5-13.9,14.5-31.6,14.5-51.4v-33.8
				c-9.1-5-17.4-11.3-24.7-18.5C357,578,349,584,340.2,589z"/>
			<g id="Group" transform="translate(0.000000, 42.000000)">
				<path id="Path_00000105423741551814122100000010087364706369734809_" class="st1" d="M480.9,309.7c-0.1-0.1-0.3-0.1-0.4-0.2
					c-4.4-1.7-8.9-3.2-13.6-4.3c-0.6-0.1-1.1-0.3-1.7-0.4c-2.2-0.5-4.4-0.9-6.6-1.3c-0.2,0-0.3,0-0.5-0.1c-2.1-0.3-4.2-0.5-6.4-0.7
					c-0.6,0-1.2-0.1-1.8-0.1c-2.3-0.2-4.6-0.3-6.9-0.3c-2.6,0-5.2,0.1-7.7,0.3c-0.5,0-1.1,0.1-1.6,0.1c-2.4,0.2-4.8,0.5-7.2,0.9
					c-0.5,0.1-1.1,0.2-1.6,0.3c-2.3,0.4-4.6,0.9-6.9,1.4c-0.2,0-0.4,0.1-0.6,0.1c-2.5,0.6-4.9,1.4-7.3,2.2c-0.3,0.1-0.7,0.2-1.1,0.4
					c-2.5,0.9-5,1.9-7.4,2.9c0,0,0,0-0.1,0c-20.8,9.2-38,25.1-48.8,45c0,0,0,0,0,0.1c-0.2,0.3-0.3,0.6-0.5,0.9
					c-0.2,0.3-0.3,0.7-0.5,1c-0.4,0.9-0.9,1.7-1.3,2.6c0,0.1-0.1,0.2-0.1,0.3c-0.2,0.5-0.5,1-0.7,1.5c-0.3,0.8-0.7,1.6-1,2.3
					c-0.1,0.2-0.2,0.5-0.3,0.7c0,0.1-0.1,0.2-0.1,0.3c-0.3,0.8-0.7,1.7-1,2.5c-0.3,0.8-0.7,1.7-1,2.5c-0.6,1.7-1.2,3.5-1.7,5.2
					c0,0.1,0,0.2-0.1,0.3c-0.9,3-1.6,6-2.2,9.1c0,0.2-0.1,0.3-0.1,0.5c-0.6,3-1,6.1-1.3,9.2c0,0.2,0,0.3,0,0.5
					c-0.3,3.1-0.4,6.2-0.5,9.4c0,0,0,0,0,0v44.4c0,1.7-0.1,3.4-0.3,5.1c-0.1,0.7-0.2,1.4-0.3,2.2c-0.1,0.9-0.3,1.8-0.4,2.8
					c-0.2,0.9-0.4,1.8-0.6,2.7c-0.2,0.7-0.3,1.4-0.5,2.1c-0.3,1-0.6,1.9-0.9,2.8c-0.2,0.6-0.4,1.2-0.7,1.8c-0.4,0.9-0.7,1.9-1.2,2.8
					c-0.3,0.6-0.5,1.1-0.8,1.7c-0.4,0.9-0.9,1.8-1.4,2.7c-0.3,0.6-0.7,1.1-1,1.7c-0.5,0.8-1,1.7-1.6,2.4c-0.4,0.6-0.9,1.2-1.3,1.8
					c-0.5,0.7-1.1,1.5-1.7,2.2c-0.2,0.2-0.4,0.4-0.6,0.7c-1,1.2-2.1,2.4-3.3,3.5c-0.4,0.4-0.9,0.8-1.3,1.2c-1,0.9-1.9,1.7-2.9,2.5
					c-0.5,0.4-1.1,0.8-1.6,1.2c-1,0.7-1.9,1.4-2.9,2c-0.6,0.4-1.2,0.8-1.8,1.1c-1,0.6-2,1.1-3,1.6c-0.7,0.3-1.3,0.7-2,1
					c-1,0.5-2.1,0.9-3.2,1.3c-0.7,0.3-1.4,0.5-2.1,0.7c-1.1,0.4-2.2,0.7-3.3,0.9c-0.7,0.2-1.4,0.4-2.1,0.6c-1.1,0.2-2.2,0.4-3.3,0.6
					c-0.8,0.1-1.5,0.3-2.3,0.3c-1,0.1-2.1,0.1-3.2,0.2c-0.8,0-1.7,0.1-2.5,0.1c-0.5,0-1,0-1.5-0.1c-1.2,0-2.3-0.1-3.5-0.2
					c-0.8-0.1-1.7-0.2-2.5-0.3c-0.8-0.1-1.7-0.2-2.5-0.4c-0.9-0.2-1.7-0.4-2.6-0.6c-0.7-0.2-1.5-0.4-2.2-0.6
					c-0.9-0.3-1.7-0.5-2.6-0.8c-0.7-0.2-1.4-0.5-2-0.7c-0.9-0.3-1.7-0.7-2.6-1c-0.6-0.3-1.3-0.6-1.9-0.9c-0.8-0.4-1.7-0.8-2.5-1.3
					c-0.6-0.3-1.1-0.7-1.6-1c-1.6-1-3.1-2-4.6-3.1c-6.5-4.9-11.9-11.3-15.7-18.6c-0.5,2.2-1,4.4-1.7,6.7
					c-4.6,15.5-12.4,29.6-22.6,41.4c9.8,9.7,21.4,17.5,34.4,22.7c0.1,0.1,0.3,0.1,0.4,0.2c4.4,1.7,8.9,3.2,13.6,4.3
					c0.6,0.1,1.1,0.3,1.7,0.4c2.2,0.5,4.4,0.9,6.6,1.3c0.2,0,0.3,0,0.5,0.1c2.1,0.3,4.2,0.5,6.4,0.7c0.6,0,1.2,0.1,1.8,0.1
					c2.3,0.2,4.6,0.3,6.9,0.3c2.6,0,5.2-0.1,7.7-0.3c0.5,0,1.1-0.1,1.6-0.1c2.4-0.2,4.8-0.5,7.2-0.9c0.5-0.1,1.1-0.2,1.6-0.3
					c2.3-0.4,4.6-0.9,6.8-1.4c0.2,0,0.4-0.1,0.6-0.1c2.5-0.6,4.9-1.4,7.3-2.2c0.4-0.1,0.7-0.2,1.1-0.4c2.5-0.9,5-1.9,7.4-2.9
					c0,0,0,0,0.1,0c14.4-6.4,27-15.9,37-27.8c0,0,0,0,0,0c0.5-0.6,1-1.3,1.5-1.9c0.3-0.3,0.6-0.7,0.9-1.1c0.9-1.2,1.8-2.4,2.7-3.6
					c0.2-0.2,0.3-0.4,0.5-0.7c6.4-9,11.4-19.1,14.5-29.9c0-0.1,0-0.2,0.1-0.3c0.9-3,1.6-6,2.2-9.1c0-0.2,0.1-0.3,0.1-0.5
					c0.6-3,1-6.1,1.3-9.2c0-0.2,0-0.3,0-0.5c0.3-3.1,0.5-6.3,0.5-9.5c0,0,0,0,0,0v-44.4c0-1.7,0.1-3.4,0.3-5.1
					c0.1-0.7,0.2-1.4,0.3-2.2c0.1-0.9,0.3-1.8,0.4-2.8c0.2-0.9,0.4-1.8,0.6-2.7c0.2-0.7,0.3-1.4,0.5-2.1c0.3-1,0.6-1.9,0.9-2.8
					c0.2-0.6,0.4-1.2,0.7-1.8c0.4-0.9,0.7-1.9,1.2-2.8c0.3-0.6,0.5-1.1,0.8-1.7c0.4-0.9,0.9-1.8,1.4-2.7c0.3-0.6,0.7-1.1,1-1.7
					c0.5-0.8,1-1.7,1.6-2.4c0.4-0.6,0.9-1.2,1.3-1.7c0.6-0.7,1.1-1.5,1.7-2.2c0.2-0.2,0.4-0.4,0.6-0.6c1-1.2,2.1-2.4,3.3-3.5
					c0.4-0.4,0.9-0.8,1.3-1.2c1-0.9,1.9-1.7,2.9-2.5c0.5-0.4,1.1-0.8,1.6-1.2c1-0.7,1.9-1.4,2.9-2c0.6-0.4,1.2-0.8,1.8-1.1
					c1-0.6,2-1.1,3-1.6c0.7-0.3,1.3-0.7,2-1c1-0.5,2.1-0.9,3.2-1.3c0.7-0.3,1.4-0.5,2.1-0.7c1.1-0.4,2.2-0.7,3.3-0.9
					c0.7-0.2,1.4-0.4,2.1-0.6c1.1-0.2,2.2-0.4,3.3-0.6c0.8-0.1,1.5-0.3,2.3-0.3c1-0.1,2.1-0.1,3.2-0.2c0.8,0,1.7-0.1,2.5-0.1
					c0.5,0,1,0,1.5,0.1c1.2,0,2.3,0.1,3.5,0.2c0.8,0.1,1.7,0.2,2.5,0.3c0.8,0.1,1.7,0.2,2.5,0.4c0.9,0.2,1.7,0.4,2.6,0.6
					c0.7,0.2,1.5,0.4,2.2,0.6c0.9,0.3,1.7,0.5,2.6,0.8c0.7,0.2,1.4,0.5,2,0.7c0.9,0.3,1.7,0.7,2.6,1c0.7,0.3,1.3,0.6,1.9,0.9
					c0.8,0.4,1.7,0.8,2.5,1.2c0.6,0.3,1.1,0.7,1.7,1c1.5,0.9,3,1.9,4.5,3c13.2,9.9,21.8,25.6,21.8,43.3v44.4c0,1.7-0.1,3.4-0.3,5.1
					c-0.1,0.7-0.2,1.4-0.3,2.2c-0.1,0.9-0.3,1.8-0.4,2.8c-0.2,0.9-0.4,1.8-0.6,2.7c-0.2,0.7-0.3,1.4-0.5,2.1c-0.3,1-0.6,1.9-0.9,2.8
					c-0.2,0.6-0.4,1.2-0.7,1.8c-0.4,0.9-0.7,1.9-1.2,2.8c-0.3,0.6-0.5,1.1-0.8,1.7c-0.4,0.9-0.9,1.8-1.4,2.7c-0.3,0.6-0.7,1.1-1,1.7
					c-0.5,0.8-1,1.7-1.6,2.4c-0.4,0.6-0.9,1.2-1.3,1.8c-0.5,0.7-1.1,1.5-1.7,2.2c-0.2,0.2-0.4,0.4-0.6,0.7c-1,1.2-2.1,2.4-3.3,3.5
					c-0.4,0.4-0.9,0.8-1.3,1.2c-1,0.9-1.9,1.7-2.9,2.5c-0.5,0.4-1.1,0.8-1.6,1.2c-1,0.7-1.9,1.4-2.9,2c-0.6,0.4-1.2,0.8-1.8,1.1
					c-1,0.6-2,1.1-3,1.6c-0.7,0.3-1.3,0.7-2,1c-1,0.5-2.1,0.9-3.2,1.3c-0.7,0.3-1.4,0.5-2.1,0.7c-1.1,0.4-2.2,0.7-3.3,0.9
					c-0.7,0.2-1.4,0.4-2.1,0.6c-1.1,0.2-2.2,0.4-3.3,0.6c-0.8,0.1-1.5,0.3-2.3,0.3c-1,0.1-2.1,0.1-3.2,0.2c-0.8,0-1.7,0.1-2.5,0.1
					c-0.5,0-1,0-1.5-0.1c-1.2,0-2.3-0.1-3.5-0.2c-0.8-0.1-1.7-0.2-2.5-0.3c-0.8-0.1-1.7-0.2-2.5-0.4c-0.9-0.2-1.7-0.4-2.6-0.6
					c-0.7-0.2-1.5-0.4-2.2-0.6c-0.9-0.3-1.7-0.5-2.6-0.8c-0.7-0.2-1.4-0.5-2-0.7c-0.9-0.3-1.7-0.7-2.6-1c-0.6-0.3-1.3-0.6-1.9-0.9
					c-0.8-0.4-1.7-0.8-2.5-1.3c-0.6-0.3-1.1-0.7-1.6-1c-1.6-1-3.1-2-4.6-3.1c-6.5-4.9-11.9-11.2-15.7-18.5c-0.5,2.2-1,4.4-1.7,6.6
					c-4.6,15.5-12.4,29.6-22.6,41.5c9.8,9.7,21.5,17.5,34.5,22.7c0.1,0.1,0.3,0.1,0.4,0.2c4.4,1.7,8.9,3.2,13.6,4.3
					c0.6,0.1,1.1,0.3,1.7,0.4c2.2,0.5,4.4,0.9,6.6,1.3c0.2,0,0.3,0,0.5,0.1c2.1,0.3,4.2,0.5,6.4,0.7c0.6,0,1.2,0.1,1.8,0.1
					c2.3,0.2,4.6,0.3,6.9,0.3c2.6,0,5.2-0.1,7.7-0.3c0.5,0,1.1-0.1,1.6-0.1c2.4-0.2,4.8-0.5,7.2-0.9c0.5-0.1,1.1-0.2,1.6-0.3
					c2.3-0.4,4.6-0.9,6.8-1.4c0.2,0,0.4-0.1,0.6-0.1c2.5-0.6,4.9-1.4,7.3-2.2c0.4-0.1,0.7-0.2,1.1-0.4c2.5-0.9,5-1.9,7.4-2.9
					c0,0,0,0,0.1,0c27.4-12.1,48.5-35.8,57.1-64.9c0-0.1,0-0.2,0.1-0.3c0.9-3,1.6-6,2.2-9.1c0-0.2,0.1-0.3,0.1-0.5
					c0.6-3,1-6.1,1.3-9.2c0-0.2,0-0.3,0-0.5c0.3-3.1,0.5-6.3,0.5-9.5v-44.4C545.8,361.9,518.9,324.8,480.9,309.7z"/>
				<path id="Path_00000127043753399732823240000005097371457606019255_" class="st1" d="M227.7,478.6c0.9-3,1.6-6,2.2-9.1
					c0-0.2,0.1-0.3,0.1-0.5c0.6-3,1-6.1,1.3-9.2c0-0.2,0-0.3,0-0.5c0.3-3.1,0.5-6.3,0.5-9.5v-44.4h0.2c0-12.7,4.5-25.1,12.7-34.8
					c7.1-8.4,16.4-14.4,26.7-17.3c0.2,0,0.3-0.1,0.5-0.1c1.5-0.4,3-0.7,4.5-1c0.5-0.1,1-0.1,1.4-0.2c0.3,0,0.7-0.1,1.1-0.2
					c0.6-0.1,1.3-0.2,1.9-0.2c0.8-0.1,1.7-0.1,2.5-0.1c0.8,0,1.7-0.1,2.5-0.1c0.5,0,1,0,1.5,0.1c1.2,0,2.3,0.1,3.5,0.2
					c0.8,0.1,1.7,0.2,2.5,0.3c0.8,0.1,1.7,0.2,2.5,0.4c0.9,0.2,1.7,0.4,2.6,0.6c0.7,0.2,1.5,0.4,2.2,0.6c0.9,0.3,1.7,0.5,2.6,0.8
					c0.7,0.2,1.4,0.5,2,0.7c0.9,0.3,1.7,0.7,2.6,1c0.7,0.3,1.3,0.6,1.9,0.9c0.8,0.4,1.7,0.8,2.5,1.2c0.6,0.3,1.1,0.7,1.7,1
					c1.5,0.9,3,1.9,4.5,3c6.5,4.9,12,11.3,15.8,18.6c0.2-0.9,0.4-1.9,0.7-2.8c0.3-1.3,0.7-2.5,1-3.8c0.6-2,1.2-3.9,1.9-5.8
					c0.4-1.1,0.8-2.1,1.2-3.2c0.3-0.8,0.6-1.6,0.9-2.4c0.6-1.4,1.2-2.8,1.9-4.2c0.2-0.4,0.3-0.8,0.6-1.2c0.8-1.6,1.6-3.2,2.5-4.8
					c0.1-0.1,0.1-0.3,0.2-0.4c0.9-1.7,1.9-3.4,2.9-5.1c0,0,0,0,0,0c3.1-5,6.6-9.8,10.4-14.3c-4.3-4.3-9-8.2-14.1-11.7
					c0,0,0-0.1,0.1-0.1c-17.2-11.9-37.2-18.2-58.2-18.2c-3.2,0-6.3,0.2-9.5,0.4c0,0,0,0-0.1,0c-0.2,0-0.5,0-0.7,0.1
					c-1,0.1-1.9,0.2-2.9,0.3c-1.2,0.2-2.4,0.3-3.7,0.5c-0.5,0.1-1.1,0.2-1.6,0.3c-2.3,0.4-4.6,0.9-6.9,1.4c-0.2,0-0.4,0.1-0.6,0.1
					c-2.5,0.6-4.9,1.4-7.3,2.2c-0.3,0.1-0.7,0.2-1.1,0.4c-2.5,0.9-5,1.9-7.4,2.9c0,0,0,0-0.1,0c-27.4,12.1-48.5,35.8-57.1,64.9
					c0,0.1,0,0.2-0.1,0.3c-0.9,3-1.6,6-2.2,9.1c0,0.2-0.1,0.3-0.1,0.5c-0.6,3-1,6.1-1.3,9.2c0,0.2,0,0.3,0,0.5
					c-0.3,3.1-0.5,6.3-0.5,9.5v44.4v0c0,1.7-0.1,3.4-0.3,5.1c-0.1,0.7-0.2,1.4-0.3,2.2c-0.1,0.9-0.3,1.8-0.4,2.8
					c-0.2,0.9-0.4,1.8-0.6,2.7c-0.2,0.7-0.3,1.4-0.5,2.1c-0.3,1-0.6,1.9-0.9,2.8c-0.2,0.6-0.4,1.2-0.7,1.8c-0.4,0.9-0.7,1.9-1.2,2.8
					c-0.3,0.6-0.5,1.1-0.8,1.7c-0.4,0.9-0.9,1.8-1.4,2.7c-0.3,0.6-0.7,1.1-1,1.7c-0.5,0.8-1,1.7-1.6,2.4c-0.4,0.6-0.9,1.2-1.3,1.8
					c-0.5,0.7-1.1,1.5-1.7,2.2c-0.2,0.2-0.4,0.4-0.6,0.7c-1,1.2-2.1,2.4-3.3,3.5c-0.4,0.4-0.9,0.8-1.3,1.2c-1,0.9-1.9,1.7-2.9,2.5
					c-0.5,0.4-1.1,0.8-1.6,1.2c-1,0.7-1.9,1.4-2.9,2c-0.6,0.4-1.2,0.8-1.8,1.1c-1,0.6-2,1.1-3,1.6c-0.7,0.3-1.3,0.7-2,1
					c-1,0.5-2.1,0.9-3.2,1.3c-0.7,0.3-1.4,0.5-2.1,0.7c-1.1,0.4-2.2,0.7-3.3,0.9c-0.7,0.2-1.4,0.4-2.1,0.6c-1.1,0.2-2.2,0.4-3.3,0.6
					c-0.8,0.1-1.5,0.3-2.3,0.3c-1,0.1-2.1,0.1-3.2,0.2c-0.8,0-1.7,0.1-2.5,0.1c-0.5,0-1,0-1.5-0.1c-0.9,0-1.8-0.1-2.6-0.1
					c-0.3,0-0.7,0-1-0.1c-0.8-0.1-1.5-0.2-2.3-0.3c-0.6-0.1-1.1-0.2-1.7-0.3c-0.4-0.1-0.8-0.1-1.2-0.2c-0.3-0.1-0.7-0.1-1-0.2
					c-0.6-0.1-1.1-0.2-1.7-0.4c-0.1,0-0.3-0.1-0.4-0.1c-23.2-6.1-40.4-27.3-40.4-52.4v-44.4c0-1.9,0.1-3.9,0.3-6l0.2-2.7v-0.1v0h0
					l0.3-3.7c0.5-4.9,2-12.2,5.9-20.6c2.2-4.7,5-9.1,8.3-13.2c3.3-4,6.9-7.4,11-10.4c0.5-0.3,0.9-0.7,1.3-1l0.3-0.2
					c1.7-1.5,2.4-2.5,2.6-3l0.2-0.3c0.1-0.2,0.2-0.4,0.3-0.5c0.5-0.9,0.8-1.8,0.9-2.5l-0.1-0.6c-0.1-2.7-1-5.5-2.7-8.5l-0.2-0.3
					c-3.1-5.6-8.1-10.4-11.8-13.5l-1.1-0.9l0,0l-0.3-0.3l-0.1,0c-0.5-0.4-1-0.7-1.5-1c-6.9-4.2-13.4-4.2-20.4-0.1
					c-3.4,2-7,5-10.5,8.9c-12.3,12.5-27.5,34.2-31.1,68.3l-0.1,1l-0.1,0.6c-0.4,3.6-0.6,7.2-0.6,10.6v4.7h-0.2v39.7
					c0,43.3,26.9,80.4,64.8,95.5c0.1,0.1,0.3,0.1,0.4,0.2c4.4,1.7,8.9,3.2,13.6,4.3c0.6,0.1,1.1,0.3,1.7,0.4
					c2.2,0.5,4.4,0.9,6.6,1.3c0.2,0,0.3,0,0.5,0.1c1.3,0.2,2.7,0.3,4.1,0.5c0.6,0.1,1.3,0.1,1.9,0.2c0.1,0,0.3,0,0.4,0
					c0.6,0,1.2,0.1,1.8,0.1c0.1,0,0.3,0,0.4,0c0.9,0.1,1.7,0.1,2.6,0.1c1.1,0,2.2,0.1,3.3,0.1c0.3,0,0.5,0,0.7,0
					c2.6,0,5.2-0.1,7.7-0.3c0.5,0,1.1-0.1,1.6-0.1c2.4-0.2,4.8-0.5,7.2-0.9c0.5-0.1,1.1-0.2,1.6-0.3c2.3-0.4,4.6-0.9,6.8-1.4
					c0.2,0,0.4-0.1,0.6-0.1c2.5-0.6,4.9-1.4,7.3-2.2c0.4-0.1,0.7-0.2,1.1-0.4c2.5-0.9,5-1.9,7.4-2.9c0,0,0,0,0.1,0
					c27.4-12.1,48.5-35.8,57.1-64.9C227.7,478.7,227.7,478.6,227.7,478.6z"/>
			</g>
		</g>
	</g>
</g>
</svg>
